Patient4_TMGait_0pt4_02_right_26_GRF.mot
version=1
nRows=39
nColumns=19
inDegrees=no
endheader
time	F1x	F1y	F1z	M1x	M1y	M1z	F2x	F2y	F2z	M2x	M2y	M2z	EC1x	EC1y	EC1z	EC2x	EC2y	EC2z
34.33	-14.7955	756.994	80.67	-256.2027	-84.2644	800.0989	7.7114	14.6426	-9.3287	3.4637	4.6682	11.0849	-0.0592	0.0182	-0.0073	-0.0462	0.0165	0.9585
34.343	-6.9808	750.1032	76.0162	-253.3999	-77.9119	792.4547	4.899	10.3744	-6.2932	2.5802	3.2495	8.1506	-0.0592	0.0182	-0.0073	-0.0462	0.0165	0.9585
34.356	0.29762	741.2846	71.7493	-249.9911	-71.8701	782.0337	2.5601	6.8418	-3.7429	1.8518	2.072	5.7391	-0.0592	0.0182	-0.0073	-0.0462	0.0165	0.9585
34.369	6.637	731.7478	68.1275	-246.4063	-66.4999	770.139	0.80885	4.2276	-1.8082	1.3194	1.1825	3.9809	-0.0592	0.0182	-0.0073	-0.0462	0.0165	0.9585
34.382	11.9131	723.0385	65.297	-243.1632	-62.0106	758.5287	-0.39214	2.4752	-0.49266	0.96884	0.58766	2.8276	-0.0592	0.0182	-0.0073	-0.0462	0.0165	0.9585
34.395	16.1767	716.6517	63.2496	-240.7522	-58.4306	748.9246	-1.1414	1.4237	0.30977	0.76213	0.23546	2.1529	-0.0592	0.0182	-0.0073	-0.0462	0.0165	0.9585
34.408	19.5717	713.7571	61.9318	-239.5494	-55.7164	742.6856	-1.5539	0.88669	0.71426	0.65403	0.082864	1.8126	-0.0592	0.0182	-0.0073	-0.0462	0.0165	0.9585
34.421	22.2877	715.0407	61.2211	-239.7646	-53.7385	740.6316	-1.7558	0.64582	0.8529	0.59117	0.069246	1.6285	-0.0592	0.0182	-0.0073	-0.0462	0.0165	0.9585
34.434	24.5063	720.6009	61.006	-241.4075	-52.3708	742.9538	-1.8558	0.49348	0.81796	0.51991	0.15941	1.4305	-0.0592	0.0182	-0.0073	-0.0462	0.0165	0.9585
34.447	26.3912	729.954	61.1641	-244.292	-51.4735	749.2071	-1.9153	0.26116	0.68537	0.39254	0.31317	1.0652	-0.0592	0.0182	-0.0073	-0.0462	0.0165	0.9585
34.46	28.0446	742.1163	61.6106	-248.0608	-50.9521	758.429	-1.9857	-0.21208	0.49778	0.16017	0.51186	0.37974	-0.0592	0.0182	-0.0073	-0.0462	0.0165	0.9585
34.473	29.5392	755.7283	62.2714	-252.2281	-50.7224	769.2617	-2.0805	-1.0562	0.29357	-0.21688	0.7311	-0.75166	-0.0592	0.0182	-0.0073	-0.0462	0.0165	0.9585
34.486	30.917	769.2441	63.0943	-256.2467	-50.7249	780.1608	-2.1616	-2.3406	0.094918	-0.76161	0.94078	-2.4001	-0.0592	0.0182	-0.0073	-0.0462	0.0165	0.9585
34.499	32.2107	781.1314	64.0362	-259.581	-50.9072	789.5949	-2.1648	-4.0676	-0.064527	-1.4719	1.0782	-4.5663	-0.0592	0.0182	-0.0073	-0.0462	0.0165	0.9585
34.512	33.4695	790.0329	65.0681	-261.7591	-51.2247	796.2158	-1.9882	-6.1146	-0.15582	-2.2982	1.0699	-7.1036	-0.0592	0.0182	-0.0073	-0.0462	0.0165	0.9585
34.525	34.7287	794.8314	66.1792	-262.4025	-51.6468	798.9161	-1.4774	-8.1525	-0.13967	-3.1111	0.81186	-9.6173	-0.0592	0.0182	-0.0073	-0.0462	0.0165	0.9585
34.538	36.0117	794.7889	67.375	-261.2747	-52.1671	796.9504	-0.44775	-9.5935	0.027125	-3.6778	0.17981	-11.39	-0.0592	0.0182	-0.0073	-0.0462	0.0165	0.9585
34.551	37.2806	789.6977	68.6366	-258.3351	-52.777	790.1212	1.2908	-9.5118	0.40409	-3.6295	-0.97365	-11.2891	-0.0592	0.0182	-0.0073	-0.0462	0.0165	0.9585
34.564	38.4812	779.9086	69.9162	-253.751	-53.4573	778.7965	3.9159	-6.5862	1.0347	-2.4395	-2.7732	-7.717	-0.0592	0.0182	-0.0073	-0.0462	0.0165	0.9585
34.577	39.5236	766.223	71.1096	-247.8541	-54.1464	763.8085	7.5056	0.87102	1.9533	0.56839	-5.2842	1.3703	-0.0592	0.0182	-0.0073	-0.0462	0.0165	0.9585
34.59	40.3364	749.5982	72.0839	-241.0326	-54.7474	746.1409	11.9474	14.7919	3.1495	6.1708	-8.4399	18.3134	-0.0592	0.0182	-0.0073	-0.0462	0.0165	0.9585
34.603	40.8601	730.8679	72.6521	-233.6296	-55.1038	726.6484	16.8194	37.0992	4.5393	15.1344	-11.9605	45.4375	-0.0592	0.0182	-0.0073	-0.0462	0.0165	0.9585
34.616	41.0774	710.5319	72.6234	-225.8667	-55.0415	705.8293	21.2084	69.1448	5.9228	27.9948	-15.2338	84.3705	-0.0592	0.0182	-0.0073	-0.0462	0.0165	0.9585
34.629	40.9847	688.5885	71.7747	-217.7869	-54.3453	683.6651	23.533	110.8893	6.9333	44.7273	-17.1873	135.053	-0.0592	0.0182	-0.0073	-0.0462	0.0165	0.9585
34.642	40.5604	664.5092	69.9147	-209.2437	-52.8263	659.6194	21.6404	159.9516	6.9717	64.3631	-16.2658	194.5823	-0.0592	0.0182	-0.0073	-0.0462	0.0165	0.9585
34.655	39.7832	637.4866	66.8859	-199.9873	-50.3247	632.858	14.565	211.8869	5.2349	85.0747	-11.1804	257.635	-0.0592	0.0182	-0.0073	-0.0462	0.0165	0.9585
34.668	38.6474	606.9048	62.6803	-189.8152	-46.8252	602.7242	4.197	261.7386	1.4584	104.8451	-2.4162	318.1291	-0.0592	0.0182	-0.0073	-0.0462	0.0165	0.9585
34.681	37.2058	572.5793	57.4953	-178.6538	-42.4955	568.9618	-6.7515	305.8055	-3.9366	122.2157	8.4203	371.278	-0.0592	0.0182	-0.0073	-0.0462	0.0165	0.9585
34.694	35.5145	534.7371	51.7357	-166.547	-37.6932	531.7368	-16.4995	343.2523	-10.1386	136.8906	19.6595	415.8681	-0.0592	0.0182	-0.0073	-0.0462	0.0165	0.9585
34.707	33.6267	493.8667	45.8221	-153.6156	-32.7948	491.489	-24.1526	375.3898	-16.1908	149.4414	29.8543	453.4595	-0.0592	0.0182	-0.0073	-0.0462	0.0165	0.9585
34.72	31.546	450.571	40.1095	-140.0196	-28.1277	448.8069	-29.5467	404.0512	-21.4868	160.6393	38.2358	486.3908	-0.0592	0.0182	-0.0073	-0.0462	0.0165	0.9585
34.733	29.2462	405.5968	34.7415	-125.9668	-23.8299	404.4233	-32.8576	430.8341	-25.6807	171.1433	44.5064	516.6994	-0.0592	0.0182	-0.0073	-0.0462	0.0165	0.9585
34.746	26.6583	359.7574	29.7613	-111.6884	-19.961	359.1399	-34.4617	457.053	-28.9187	181.4629	48.9944	546.0735	-0.0592	0.0182	-0.0073	-0.0462	0.0165	0.9585
34.759	23.6746	313.9262	25.154	-97.4379	-16.5458	313.8236	-34.8488	483.9653	-31.5522	192.0577	52.3278	576.122	-0.0592	0.0182	-0.0073	-0.0462	0.0165	0.9585
34.772	20.1833	269.0567	20.971	-83.4908	-13.673	269.4229	-34.5898	512.5938	-34.1251	203.2726	55.3622	608.1947	-0.0592	0.0182	-0.0073	-0.0462	0.0165	0.9585
34.785	16.1477	226.1313	17.2639	-70.1365	-11.4131	226.9176	-34.2647	543.4214	-37.1005	215.2383	58.8609	642.959	-0.0592	0.0182	-0.0073	-0.0462	0.0165	0.9585
34.798	11.6509	186.1176	14.0881	-57.6727	-9.8016	187.2633	-34.4272	576.3389	-40.8609	227.8664	63.4587	680.3349	-0.0592	0.0182	-0.0073	-0.0462	0.0165	0.9585
34.811	6.9329	149.9114	11.4565	-46.3853	-8.781	151.3241	-35.4384	610.8779	-45.4487	240.9603	69.331	719.7595	-0.0592	0.0182	-0.0073	-0.0462	0.0165	0.9585
34.824	2.3399	118.1097	9.3426	-36.4738	-8.2178	119.6789	-37.3099	646.2971	-50.6225	254.2497	76.183	760.2707	-0.0592	0.0182	-0.0073	-0.0462	0.0165	0.9585
